<?xml version="1.0" standalone="no"?>
<svg viewBox="0 0 200 200" xmlns="http://www.w3.org/2000/svg">
  <path fill="#CC0000" d="M24.1,-33.2C32,-37.3,39.6,-32.3,41.6,-25.2C43.7,-18.2,40.2,-9.1,39.9,-0.2C39.7,8.8,42.6,17.5,44.4,31.4C46.3,45.2,47.2,64.2,39.6,69.7C32,75.3,16,67.4,6.1,56.8C-3.8,46.2,-7.6,33,-13.4,26.5C-19.2,19.9,-27,20,-32.3,16.7C-37.7,13.4,-40.6,6.7,-43.1,-1.4C-45.6,-9.6,-47.6,-19.1,-41.1,-20.4C-34.6,-21.7,-19.6,-14.8,-11.3,-10.5C-3,-6.2,-1.5,-4.6,3.3,-10.3C8.1,-16.1,16.3,-29.2,24.1,-33.2Z" transform="translate(100 100)" />
</svg>
