<?xml version="1.0" standalone="no"?>
<svg viewBox="0 0 200 200" xmlns="http://www.w3.org/2000/svg">
  <path fill="#A7F0BA" d="M12.3,-22.2C21.1,-16.2,37.1,-23.4,44.5,-21.9C52,-20.4,50.9,-10.2,43.1,-4.5C35.3,1.2,20.9,2.5,13.8,4.6C6.7,6.7,7.1,9.7,6,10.6C4.9,11.5,2.5,10.2,-4.1,17.3C-10.6,24.3,-21.1,39.6,-34.3,45.7C-47.5,51.8,-63.4,48.8,-65.6,39.6C-67.8,30.5,-56.5,15.2,-47.1,5.4C-37.6,-4.4,-30.2,-8.8,-29.3,-20.2C-28.4,-31.7,-34,-50.2,-30.3,-59.2C-26.5,-68.1,-13.2,-67.5,-5.8,-57.5C1.7,-47.6,3.4,-28.2,12.3,-22.2Z" transform="translate(100 100)" />
</svg>
