<?xml version="1.0" standalone="no"?>
<svg viewBox="0 0 200 200" xmlns="http://www.w3.org/2000/svg">
  <path fill="#0F62FE" d="M38.4,-57.3C52.3,-58.5,67.9,-53.4,68.1,-42.7C68.3,-32.1,53.1,-16.1,47.8,-3.1C42.4,9.9,46.9,19.8,45.7,28.7C44.6,37.6,37.7,45.6,29.2,50.4C20.6,55.3,10.3,57,-1.3,59.2C-12.9,61.4,-25.7,64.1,-29.9,56.7C-34.2,49.4,-29.7,32,-36.5,20.9C-43.2,9.7,-61.1,4.9,-66.4,-3.1C-71.7,-11,-64.4,-22,-51.2,-22C-38.1,-22,-19.1,-11.1,-9.6,-12.4C-0.1,-13.7,0,-27.1,6.1,-37.7C12.3,-48.3,24.5,-56,38.4,-57.3Z" transform="translate(100 100)" />
</svg>
