<?xml version="1.0" standalone="no"?>
<svg viewBox="0 0 200 200" xmlns="http://www.w3.org/2000/svg">
  <path fill="#FF0066" d="M8.5,-21.2C13.8,-11.6,23,-15.1,26.1,-13.7C29.2,-12.4,26.3,-6.2,26.8,0.3C27.3,6.8,31.4,13.6,30.7,19.2C30,24.7,24.6,28.9,18.7,35.3C12.8,41.7,6.4,50.3,0.2,50C-6.1,49.7,-12.1,40.6,-17.7,34C-23.3,27.4,-28.4,23.4,-35.4,18.1C-42.4,12.9,-51.4,6.4,-53.1,-1C-54.8,-8.4,-49.2,-16.8,-41.8,-21.3C-34.3,-25.9,-25,-26.5,-17.7,-35C-10.5,-43.6,-5.2,-59.9,-1.8,-56.7C1.6,-53.6,3.1,-30.8,8.5,-21.2Z" transform="translate(100 100)" />
</svg>
