<?xml version="1.0" standalone="no"?>
<svg viewBox="0 0 200 200" xmlns="http://www.w3.org/2000/svg">
  <path fill="#FF0066" d="M33.8,-59.8C42.6,-53.6,47.5,-41.9,43.8,-31C40.2,-20.2,28.1,-10.1,30.7,1.5C33.2,13,50.5,26.1,54.8,38.2C59.1,50.3,50.6,61.5,39.3,66.3C28,71.2,14,69.6,4.3,62.3C-5.5,54.9,-11,41.7,-18.6,34.8C-26.2,27.8,-36,27.1,-37.8,22.4C-39.6,17.6,-33.5,8.8,-32.1,0.8C-30.7,-7.2,-34,-14.3,-30.1,-15.5C-26.1,-16.6,-15,-11.6,-8.8,-19.3C-2.6,-27,-1.3,-47.4,5.6,-57.1C12.6,-66.9,25.1,-66.1,33.8,-59.8Z" transform="translate(100 100)" />
</svg>
