<?xml version="1.0" standalone="no"?>
<svg viewBox="0 0 200 200" xmlns="http://www.w3.org/2000/svg">
  <path fill="#FF0066" d="M3.5,-16.5C6.6,-4.3,12.7,-7.5,22.6,-7.4C32.5,-7.2,46.3,-3.6,44.9,-0.8C43.4,1.9,26.7,3.8,24.8,17.9C22.9,32,35.9,58.3,34.2,67.9C32.6,77.4,16.3,70.1,2.4,66C-11.5,61.8,-23,60.8,-32.7,55.9C-42.4,51,-50.4,42.4,-54.5,32.4C-58.6,22.5,-58.9,11.2,-51.5,4.3C-44.1,-2.7,-29,-5.3,-21.9,-10.2C-14.9,-15.1,-15.9,-22.2,-13.6,-34.9C-11.3,-47.6,-5.6,-65.9,-2.7,-61.1C0.2,-56.4,0.4,-28.7,3.5,-16.5Z" transform="translate(100 100)" />
</svg>
