<?xml version="1.0" standalone="no"?>
<svg viewBox="0 0 200 200" xmlns="http://www.w3.org/2000/svg">
  <path fill="#FF0066" d="M32.9,-52.3C42.2,-51.6,49.1,-41.9,45.1,-31.7C41.2,-21.5,26.5,-10.8,25.7,-0.5C24.9,9.8,38,19.7,44.3,34C50.6,48.3,50.1,67.1,41.6,74.7C33.1,82.3,16.5,78.6,1.8,75.5C-13,72.5,-26,70,-40,65.6C-54,61.2,-69,54.8,-65,43.6C-61.1,32.3,-38.2,16.2,-24.5,8C-10.7,-0.2,-5.9,-0.5,-5.3,-3.8C-4.6,-7.1,-8,-13.4,-7.8,-19.4C-7.6,-25.3,-3.8,-30.9,4,-37.8C11.8,-44.7,23.6,-53,32.9,-52.3Z" transform="translate(100 100)" />
</svg>
