<?xml version="1.0" standalone="no"?>
<svg viewBox="0 0 200 200" xmlns="http://www.w3.org/2000/svg">
  <path fill="#FF0066" d="M33.8,-69.5C36.8,-56.9,27.4,-33.6,22.4,-20.3C17.4,-6.9,16.8,-3.5,27.6,6.2C38.4,15.9,60.6,31.9,60.3,36.1C60.1,40.3,37.3,32.8,23.5,36C9.7,39.2,4.9,53.2,-4.9,61.6C-14.6,70,-29.2,73,-43.5,70C-57.9,67.1,-72,58.4,-71.5,45.8C-71.1,33.1,-56.2,16.6,-51.7,2.6C-47.2,-11.3,-53.1,-22.7,-47.5,-24.9C-41.9,-27.2,-24.8,-20.3,-15,-29.1C-5.2,-37.8,-2.6,-62.1,6.4,-73.2C15.4,-84.3,30.8,-82.2,33.8,-69.5Z" transform="translate(100 100)" />
</svg>
