<?xml version="1.0" standalone="no"?>
<svg viewBox="0 0 200 200" xmlns="http://www.w3.org/2000/svg">
  <path fill="#24A148" d="M41,-58.9C53.4,-63.8,63.9,-53.4,64.7,-41C65.5,-28.6,56.5,-14.3,44.3,-7.1C32,0.2,16.5,0.4,15.3,12.1C14.2,23.7,27.3,46.9,27.1,52.9C26.9,59,13.5,48.1,-1.2,50.2C-15.9,52.3,-31.8,67.5,-32.5,61.7C-33.1,55.9,-18.5,29.1,-15.6,15.3C-12.7,1.5,-21.5,0.8,-22.2,-0.4C-22.9,-1.5,-15.4,-3.1,-11.4,-4.9C-7.4,-6.7,-6.8,-8.7,-5.5,-10.2C-4.2,-11.7,-2.1,-12.6,6.1,-23.2C14.3,-33.8,28.6,-54,41,-58.9Z" transform="translate(100 100)" />
</svg>
