<?xml version="1.0" standalone="no"?>
<svg viewBox="0 0 200 200" xmlns="http://www.w3.org/2000/svg">
  <path fill="#8A3FFC" d="M1.5,-5.7C2.7,-1.9,5.1,-3.1,20.6,-3C36.2,-2.9,64.9,-1.4,70.6,3.3C76.3,8,59,16,51.7,30.5C44.4,44.9,47.2,65.7,40.2,69.4C33.3,73.1,16.6,59.6,1.9,56.3C-12.8,52.9,-25.5,59.6,-38.6,59.5C-51.7,59.3,-65.1,52.3,-62.5,41.3C-59.9,30.2,-41.3,15.1,-39,1.4C-36.6,-12.4,-50.5,-24.8,-47.7,-26.5C-44.9,-28.2,-25.4,-19.2,-14.7,-17.6C-3.9,-16,-2,-21.7,-0.9,-20.1C0.1,-18.5,0.3,-9.6,1.5,-5.7Z" transform="translate(100 100)" />
</svg>
